<svg xmlns="http://www.w3.org/2000/svg" viewBox="0 0 211.13 136.23">
    <title>RAG1kB.tif</title>
    <path fill="#EE8A6A" d="M101.88.65c8.1 0 16.19.07 24.28 0 4 0 7 1.43 9 4.86Q157 43 178.79 80.52c1.81 3.11 1.17 6-.52 8.87-8.22 14.16-16.34 28.39-24.61 42.52-3.38 5.77-5.67 5.69-8.89.08Q115.1 80.36 85.39 28.76c-4-7-8.11-14-12.11-21C70.15 2.31 71 .83 77.6.72c8.09-.14 16.19 0 24.28 0z"/>
    <path fill="#0CB9C5" d="M29.84.72c7.87 0 15.75.13 23.62 0C57.93.57 61.14 2 63.45 6q21.26 37.11 42.78 74c2.34 4 1.28 7.17-.73 10.62-8 13.76-16 27.58-24 41.31-3.32 5.66-4.73 5.72-8.14-.06C63.77 115.65 54.4 99.29 45 82.94Q23.53 45.59 2.14 8.17C-1.43 1.9-.83.89 6.23.79 14.1.68 22 .76 29.84.76z"/>
    <path fill="#FEC90F" d="M185.72 51.89c-13.61.17-26.54-11.9-26.9-25.12-.37-13.6 12.25-26.6 26-26.77 13.09-.16 25.89 12.44 26.32 25.91.38 12.52-12.62 25.83-25.42 25.98z"/>
</svg>
